<mxfile host="app.diagrams.net" agent="Mozilla/5.0 (Macintosh; Intel Mac OS X 10_15_7) AppleWebKit/605.1.15 (KHTML, like Gecko) Version/18.4 Safari/605.1.15" version="27.0.5">
  <diagram name="Page-1" id="2DO_2CLnUS3IrerHebAp">
    <mxGraphModel dx="1240" dy="803" grid="1" gridSize="10" guides="1" tooltips="1" connect="1" arrows="1" fold="1" page="1" pageScale="1" pageWidth="1654" pageHeight="2336" background="light-dark(#FFFFFF,#F5F5F5)" math="0" shadow="0">
      <root>
        <mxCell id="0" />
        <mxCell id="1" parent="0" />
        <mxCell id="fYCnTPLlL6TIF8u0-6qw-1" value="&lt;span style=&quot;color: light-dark(rgb(0, 0, 0), rgb(0, 0, 0));&quot;&gt;Start&lt;/span&gt;" style="rounded=1;whiteSpace=wrap;html=1;fillColor=light-dark(#FFFFFF,#FFFFFF);strokeColor=light-dark(#000000,#171717);" vertex="1" parent="1">
          <mxGeometry x="200" y="40" width="160" height="40" as="geometry" />
        </mxCell>
        <mxCell id="fYCnTPLlL6TIF8u0-6qw-2" value="&lt;span style=&quot;color: light-dark(transparent, rgb(0, 0, 0));&quot;&gt;MIDI Data&lt;/span&gt;" style="rounded=0;whiteSpace=wrap;html=1;fillColor=light-dark(#FFFFFF,#B6E2D3);strokeColor=light-dark(#000000,#000000);" vertex="1" parent="1">
          <mxGeometry x="200" y="120" width="160" height="40" as="geometry" />
        </mxCell>
        <mxCell id="fYCnTPLlL6TIF8u0-6qw-3" value="&lt;span style=&quot;color: light-dark(transparent, rgb(0, 0, 0));&quot;&gt;MIDI to Note Vector&lt;/span&gt;" style="rounded=0;whiteSpace=wrap;html=1;fillColor=light-dark(#FFFFFF,#C2E8D9);strokeColor=light-dark(#000000,#000000);" vertex="1" parent="1">
          <mxGeometry x="200" y="200" width="160" height="40" as="geometry" />
        </mxCell>
        <mxCell id="fYCnTPLlL6TIF8u0-6qw-4" value="&lt;span style=&quot;color: light-dark(transparent, rgb(0, 0, 0));&quot;&gt;Note Data&lt;/span&gt;" style="rounded=0;whiteSpace=wrap;html=1;fillColor=light-dark(#FFFFFF,#CFEFE1);strokeColor=light-dark(#000000,#000000);" vertex="1" parent="1">
          <mxGeometry x="200" y="280" width="160" height="40" as="geometry" />
        </mxCell>
        <mxCell id="fYCnTPLlL6TIF8u0-6qw-5" value="&lt;span style=&quot;caret-color: rgb(0, 0, 0); color: light-dark(rgb(0, 0, 0), rgb(0, 0, 0));&quot;&gt;Input Embedding&lt;/span&gt;" style="rounded=0;whiteSpace=wrap;html=1;fillColor=light-dark(#FFFFFF,#B0D6C5);strokeColor=light-dark(#000000,#000000);" vertex="1" parent="1">
          <mxGeometry x="200" y="360" width="160" height="40" as="geometry" />
        </mxCell>
        <mxCell id="fYCnTPLlL6TIF8u0-6qw-6" value="&lt;div style=&quot;text-align: start;&quot;&gt;&lt;span style=&quot;caret-color: rgb(237, 237, 237); color: light-dark(rgb(0, 0, 0), rgb(0, 0, 0));&quot;&gt;Positional Encoding&lt;/span&gt;&lt;/div&gt;" style="rounded=0;whiteSpace=wrap;html=1;fillColor=light-dark(#FFFFFF,#99CBB8);strokeColor=light-dark(#000000,#000000);" vertex="1" parent="1">
          <mxGeometry x="200" y="440" width="160" height="40" as="geometry" />
        </mxCell>
        <mxCell id="fYCnTPLlL6TIF8u0-6qw-7" value="&lt;span style=&quot;caret-color: rgb(0, 0, 0); color: light-dark(rgb(0, 0, 0), rgb(0, 0, 0));&quot;&gt;Transformer Blocks&lt;/span&gt;" style="rounded=0;whiteSpace=wrap;html=1;fillColor=light-dark(#FFFFFF,#81C1AC);strokeColor=light-dark(#000000,#000000);" vertex="1" parent="1">
          <mxGeometry x="200" y="520" width="160" height="40" as="geometry" />
        </mxCell>
        <mxCell id="fYCnTPLlL6TIF8u0-6qw-8" value="&lt;font&gt;&lt;span style=&quot;caret-color: rgb(0, 0, 0); color: light-dark(rgb(0, 0, 0), rgb(0, 0, 0));&quot;&gt;Linear Output&lt;/span&gt;&lt;/font&gt;" style="rounded=0;whiteSpace=wrap;html=1;fillColor=light-dark(#FFFFFF,#74B8A2);strokeColor=light-dark(#000000,#000000);" vertex="1" parent="1">
          <mxGeometry x="200" y="600" width="160" height="40" as="geometry" />
        </mxCell>
        <mxCell id="fYCnTPLlL6TIF8u0-6qw-9" value="&lt;span style=&quot;color: light-dark(rgb(0, 0, 0), rgb(0, 0, 0));&quot;&gt;End&lt;/span&gt;" style="rounded=1;whiteSpace=wrap;html=1;fillColor=light-dark(#FFFFFF,#FFFFFF);strokeColor=light-dark(#000000,#171717);" vertex="1" parent="1">
          <mxGeometry x="200" y="760" width="160" height="40" as="geometry" />
        </mxCell>
        <mxCell id="fYCnTPLlL6TIF8u0-6qw-10" value="" style="endArrow=classic;html=1;rounded=0;exitX=0.5;exitY=1;exitDx=0;exitDy=0;entryX=0.5;entryY=0;entryDx=0;entryDy=0;strokeColor=light-dark(#000000,#000000);" edge="1" parent="1" source="fYCnTPLlL6TIF8u0-6qw-1" target="fYCnTPLlL6TIF8u0-6qw-2">
          <mxGeometry width="50" height="50" relative="1" as="geometry">
            <mxPoint x="310" y="170" as="sourcePoint" />
            <mxPoint x="360" y="120" as="targetPoint" />
          </mxGeometry>
        </mxCell>
        <mxCell id="fYCnTPLlL6TIF8u0-6qw-11" value="" style="endArrow=classic;html=1;rounded=0;exitX=0.5;exitY=1;exitDx=0;exitDy=0;entryX=0.5;entryY=0;entryDx=0;entryDy=0;strokeColor=light-dark(#000000,#000000);" edge="1" parent="1">
          <mxGeometry width="50" height="50" relative="1" as="geometry">
            <mxPoint x="279.83" y="160" as="sourcePoint" />
            <mxPoint x="279.83" y="200" as="targetPoint" />
          </mxGeometry>
        </mxCell>
        <mxCell id="fYCnTPLlL6TIF8u0-6qw-12" value="" style="endArrow=classic;html=1;rounded=0;exitX=0.5;exitY=1;exitDx=0;exitDy=0;entryX=0.5;entryY=0;entryDx=0;entryDy=0;strokeColor=light-dark(#000000,#000000);" edge="1" parent="1">
          <mxGeometry width="50" height="50" relative="1" as="geometry">
            <mxPoint x="279.83" y="240" as="sourcePoint" />
            <mxPoint x="279.83" y="280" as="targetPoint" />
          </mxGeometry>
        </mxCell>
        <mxCell id="fYCnTPLlL6TIF8u0-6qw-13" value="" style="endArrow=classic;html=1;rounded=0;exitX=0.5;exitY=1;exitDx=0;exitDy=0;entryX=0.5;entryY=0;entryDx=0;entryDy=0;strokeColor=light-dark(#000000,#000000);" edge="1" parent="1">
          <mxGeometry width="50" height="50" relative="1" as="geometry">
            <mxPoint x="279.83" y="320" as="sourcePoint" />
            <mxPoint x="279.83" y="360" as="targetPoint" />
          </mxGeometry>
        </mxCell>
        <mxCell id="fYCnTPLlL6TIF8u0-6qw-14" value="" style="endArrow=classic;html=1;rounded=0;exitX=0.5;exitY=1;exitDx=0;exitDy=0;entryX=0.5;entryY=0;entryDx=0;entryDy=0;strokeColor=light-dark(#000000,#000000);" edge="1" parent="1">
          <mxGeometry width="50" height="50" relative="1" as="geometry">
            <mxPoint x="279.83" y="400" as="sourcePoint" />
            <mxPoint x="279.83" y="440" as="targetPoint" />
          </mxGeometry>
        </mxCell>
        <mxCell id="fYCnTPLlL6TIF8u0-6qw-15" value="" style="endArrow=classic;html=1;rounded=0;exitX=0.5;exitY=1;exitDx=0;exitDy=0;entryX=0.5;entryY=0;entryDx=0;entryDy=0;strokeColor=light-dark(#000000,#000000);" edge="1" parent="1">
          <mxGeometry width="50" height="50" relative="1" as="geometry">
            <mxPoint x="279.83" y="480" as="sourcePoint" />
            <mxPoint x="279.83" y="520" as="targetPoint" />
          </mxGeometry>
        </mxCell>
        <mxCell id="fYCnTPLlL6TIF8u0-6qw-16" value="" style="endArrow=classic;html=1;rounded=0;exitX=0.5;exitY=1;exitDx=0;exitDy=0;entryX=0.5;entryY=0;entryDx=0;entryDy=0;strokeColor=light-dark(#000000,#000000);" edge="1" parent="1">
          <mxGeometry width="50" height="50" relative="1" as="geometry">
            <mxPoint x="279.83" y="560" as="sourcePoint" />
            <mxPoint x="279.83" y="600" as="targetPoint" />
          </mxGeometry>
        </mxCell>
        <mxCell id="fYCnTPLlL6TIF8u0-6qw-17" value="" style="endArrow=classic;html=1;rounded=0;exitX=0.5;exitY=1;exitDx=0;exitDy=0;entryX=0.5;entryY=0;entryDx=0;entryDy=0;strokeColor=light-dark(#000000,#000000);" edge="1" parent="1">
          <mxGeometry width="50" height="50" relative="1" as="geometry">
            <mxPoint x="279.83" y="640" as="sourcePoint" />
            <mxPoint x="279.83" y="680" as="targetPoint" />
          </mxGeometry>
        </mxCell>
        <mxCell id="fYCnTPLlL6TIF8u0-6qw-18" value="&lt;font&gt;&lt;span style=&quot;caret-color: rgb(0, 0, 0); color: light-dark(rgb(0, 0, 0), rgb(0, 0, 0));&quot;&gt;Evaluation&lt;/span&gt;&lt;/font&gt;" style="rounded=0;whiteSpace=wrap;html=1;fillColor=light-dark(#FFFFFF,#92D2B4);strokeColor=light-dark(#000000,#000000);" vertex="1" parent="1">
          <mxGeometry x="200" y="680" width="160" height="40" as="geometry" />
        </mxCell>
        <mxCell id="fYCnTPLlL6TIF8u0-6qw-20" value="" style="endArrow=classic;html=1;rounded=0;exitX=0.5;exitY=1;exitDx=0;exitDy=0;entryX=0.5;entryY=0;entryDx=0;entryDy=0;strokeColor=light-dark(#000000,#000000);" edge="1" parent="1">
          <mxGeometry width="50" height="50" relative="1" as="geometry">
            <mxPoint x="279.66999999999996" y="720" as="sourcePoint" />
            <mxPoint x="279.66999999999996" y="760" as="targetPoint" />
          </mxGeometry>
        </mxCell>
      </root>
    </mxGraphModel>
  </diagram>
</mxfile>
